<svg xmlns="http://www.w3.org/2000/svg" xmlns:xlink="http://www.w3.org/1999/xlink" width="30" height="30" viewBox="0 0 30 30"><defs><style>.a{fill-rule:evenodd;opacity:0.88;fill:url(#a);}.b{fill:#fff;}</style><linearGradient id="a" x1="0.073" y1="0.047" x2="0.813" y2="0.907" gradientUnits="objectBoundingBox"><stop offset="0" stop-color="#b9a6ff"/><stop offset="1" stop-color="#4f71fe"/></linearGradient></defs><g transform="translate(-82 -924)"><path class="a" d="M15,30A15,15,0,1,0,0,15,15,15,0,0,0,15,30Z" transform="translate(82 924)"/><g transform="translate(90.932 928.5)"><path class="b" d="M89.26,322.307l-2.232-1.243,2.232,3.216Z" transform="translate(-82.934 -305.961)"/><path class="b" d="M23.782,246.933s-3.6,2.109-3.611,2.109-3.611-2.109-3.611-2.109l-2.285,1.031,5.89,3.287,5.89-3.287Z" transform="translate(-13.604 -235.317)"/><path class="b" d="M144.629,324.28l2.232-3.216-2.232,1.243Z" transform="translate(-137.826 -305.961)"/><path class="b" d="M144.629,291.3l5.407-7.8-2.221,1.237-3.187,4.594Z" transform="translate(-137.826 -270.162)"/><path class="b" d="M144.629,62.234V72.365l4.912-2.916Z" transform="translate(-137.826 -59.307)"/><path class="b" d="M19.66,283.5l5.4,7.8v-1.967l-3.181-4.594Z" transform="translate(-18.735 -270.162)"/><path class="b" d="M34.965,62.234,30.053,69.45l4.912,2.916Z" transform="translate(-28.639 -59.307)"/><path class="b" d="M144.629,2.073,149.954,9.9l1.007-.595L144.629,0Z" transform="translate(-137.826)"/><path class="b" d="M6.326,0,0,9.3,1,9.9,6.326,2.073Z"/></g></g></svg>